<svg id="nav_logo" xmlns="http://www.w3.org/2000/svg" width="119.56" height="34" viewBox="0 0 119.56 34">
  <path id="Path_1" data-name="Path 1" d="M312.171,176.4l2.03-11.281a.543.543,0,0,1,.539-.378h3.807a.416.416,0,0,1,.4.223l2.979,6.013a21.971,21.971,0,0,1,.335-2.237l.652-3.624a.541.541,0,0,1,.543-.375H326.8c.216,0,.447.137.4.378L325.178,176.4a.543.543,0,0,1-.545.377h-3.74a.418.418,0,0,1-.39-.206l-3.016-6.1c-.062.74-.224,1.493-.357,2.233l-.664,3.694a.543.543,0,0,1-.544.379h-3.349c-.229,0-.444-.15-.4-.375" transform="translate(-273.784 -161.197)" fill="#00347d" fill-rule="evenodd"/>
  <path id="Path_2" data-name="Path 2" d="M525.364,248.381l2.029-11.281a.543.543,0,0,1,.539-.377h3.807a.415.415,0,0,1,.4.223l2.979,6.013a21.887,21.887,0,0,1,.335-2.237l.652-3.624a.541.541,0,0,1,.543-.374H540c.216,0,.447.137.4.377l-2.029,11.279a.543.543,0,0,1-.545.377h-3.739a.419.419,0,0,1-.39-.206l-3.016-6.1c-.062.74-.224,1.493-.357,2.233l-.664,3.694a.543.543,0,0,1-.544.379h-3.349c-.229,0-.444-.15-.4-.375" transform="translate(-442.258 -218.123)" fill="#00347d" fill-rule="evenodd"/>
  <path id="Path_3" data-name="Path 3" d="M627.45,176.4l2.029-11.281a.544.544,0,0,1,.54-.377h3.807a.415.415,0,0,1,.4.223l2.979,6.013a21.9,21.9,0,0,1,.335-2.237l.652-3.624a.541.541,0,0,1,.543-.374h3.348c.216,0,.447.137.4.377L640.458,176.4a.543.543,0,0,1-.545.377h-3.739a.418.418,0,0,1-.39-.206l-3.016-6.1c-.062.74-.224,1.493-.357,2.233l-.664,3.694a.543.543,0,0,1-.544.379h-3.349c-.229,0-.444-.149-.4-.375" transform="translate(-522.931 -161.199)" fill="#00347d" fill-rule="evenodd"/>
  <path id="Path_4" data-name="Path 4" d="M390.067,176.4l2.029-11.277a.543.543,0,0,1,.542-.379h3.934c.222,0,.445.142.4.378l-2.027,11.271a.54.54,0,0,1-.547.385h-3.934c-.211,0-.441-.138-.4-.378" transform="translate(-335.34 -161.197)" fill="#00347d" fill-rule="evenodd"/>
  <path id="Path_5" data-name="Path 5" d="M486.65,248.376l2.029-11.276a.543.543,0,0,1,.542-.379h3.934c.222,0,.444.142.4.378l-2.027,11.271a.54.54,0,0,1-.547.385h-3.934c-.211,0-.442-.138-.4-.378" transform="translate(-411.664 -218.123)" fill="#00347d" fill-rule="evenodd"/>
  <path id="Path_6" data-name="Path 6" d="M428.8,176.394l2.029-11.278a.543.543,0,0,1,.539-.377h5.5a5.678,5.678,0,0,1,3.629.971c1.744,1.5.746,4.372-.909,5.488a6.717,6.717,0,0,1-3.843,1.05h-1.5l-.746,4.145a.543.543,0,0,1-.541.379H429.2c-.208,0-.442-.136-.4-.379m5.85-6.382h.628a1.977,1.977,0,0,0,1.268-.4,1.365,1.365,0,0,0-.821-2.584h-.538Z" transform="translate(-365.946 -161.196)" fill="#00347d" fill-rule="evenodd"/>
  <path id="Path_7" data-name="Path 7" d="M360.2,248.375l2.029-11.278a.543.543,0,0,1,.539-.377h5.5a5.678,5.678,0,0,1,3.629.971c1.744,1.5.747,4.372-.909,5.488a6.714,6.714,0,0,1-3.843,1.05h-1.5l-.746,4.145a.542.542,0,0,1-.541.379H360.6c-.208,0-.442-.136-.4-.379m5.85-6.382h.628a1.977,1.977,0,0,0,1.268-.4,1.365,1.365,0,0,0-.821-2.584h-.538Z" transform="translate(-311.74 -218.122)" fill="#00347d" fill-rule="evenodd"/>
  <path id="Path_8" data-name="Path 8" d="M491.837,176.4l2.029-11.278a.543.543,0,0,1,.539-.377h5.5a5.679,5.679,0,0,1,3.629.971c1.744,1.5.747,4.372-.909,5.488a6.714,6.714,0,0,1-3.843,1.05h-1.5l-.746,4.145a.542.542,0,0,1-.541.379h-3.762c-.208,0-.442-.136-.4-.379m5.85-6.382h.628a1.978,1.978,0,0,0,1.268-.4,1.365,1.365,0,0,0-.821-2.583h-.538Z" transform="translate(-415.763 -161.197)" fill="#00347d" fill-rule="evenodd"/>
  <path id="Path_9" data-name="Path 9" d="M559.425,165.46c2.581-2.087,7.692-2.471,9.922-.055,2.492,2.7.866,7.2-1.673,9.155-2.845,2.191-7.943,2.194-9.845-.046-2.289-2.7-1-6.953,1.6-9.054m3.621,8.006a2.151,2.151,0,0,0,1.572-.869,6.531,6.531,0,0,0,.969-5.193,1.4,1.4,0,0,0-1.423-.936,2.105,2.105,0,0,0-1.6.888,6.448,6.448,0,0,0-.94,5.223A1.406,1.406,0,0,0,563.047,173.465Z" transform="translate(-466.981 -160.407)" fill="#00347d" fill-rule="evenodd"/>
  <path id="Path_10" data-name="Path 10" d="M411.988,248.268l6.283-11.3a.569.569,0,0,1,.49-.244h4.718c.158,0,.366.074.4.247l1.957,11.3c.051.257-.248.482-.532.482h-3.771a.374.374,0,0,1-.4-.295l-.172-1.555h-3.584l-.746,1.552a.58.58,0,0,1-.513.3h-3.773c-.282,0-.5-.213-.348-.486m6.646-4.02h2.055l-.2-2.487a13.665,13.665,0,0,1-.013-1.814,13.881,13.881,0,0,1-.713,1.827Z" transform="translate(-352.628 -218.123)" fill="#00347d" fill-rule="evenodd"/>
  <path id="Path_11" data-name="Path 11" d="M610.04,239.557h-2.714c-.213,0-.438-.144-.4-.377l.381-2.079a.541.541,0,0,1,.542-.379h10.294c.208,0,.441.134.4.384l-.379,2.07a.54.54,0,0,1-.535.381h-2.71l-1.58,8.821a.542.542,0,0,1-.539.377h-3.941c-.214,0-.441-.141-.4-.377Z" transform="translate(-506.717 -218.123)" fill="#00347d" fill-rule="evenodd"/>
  <path id="Path_12" data-name="Path 12" d="M159.91,148.347H129.671V177.67a4.484,4.484,0,0,0,4.476,4.47h30.239V152.817a4.485,4.485,0,0,0-4.476-4.47" transform="translate(-129.568 -148.243)" fill="#fff" fill-rule="evenodd"/>
  <path id="Path_13" data-name="Path 13" d="M137.7,156.375h28.525a2.828,2.828,0,0,1,2.821,2.817V186.8H140.522a2.827,2.827,0,0,1-2.821-2.817Z" transform="translate(-135.913 -154.587)" fill="#00347d" fill-rule="evenodd"/>
  <path id="Path_14" data-name="Path 14" d="M165.733,191.372v-9.3c0-2.8,3.41-3.449,3.858-.347.364,2.522-1.987,6.9-3.617,9.7-.093.158-.241.136-.241-.053m0-19.993v-1.114h0v-.5a.6.6,0,0,0-.6-.621H156.4a.6.6,0,0,0-.6.6v22.236a.6.6,0,0,0,.6.6H177.86c.342,0,.473-.161.415-.5l-.155-.89c-.42-2.415,2.212-6.994,2.016-11.755a9.818,9.818,0,0,0-14.4-8.047Z" transform="translate(-150.22 -164.675)" fill="#fff" fill-rule="evenodd"/>
  <path id="Path_15" data-name="Path 15" d="M161.477,180.031h7.561v2.159a8.425,8.425,0,0,1,5.776-2.3,8.786,8.786,0,0,1,8.277,5.994c1.545,4.985-2.214,10.582-1.637,13.959h-9.59c2.629-4.442,3.657-7.852,3.394-9.782-.422-3.1-3.182-3.878-5.077-2.274a3.654,3.654,0,0,0-1.143,3.152v8.9h-7.561Z" transform="translate(-154.701 -173.169)" fill="#e50019" fill-rule="evenodd"/>
  <path id="Path_16" data-name="Path 16" d="M129.178,147.853h30.343a4.588,4.588,0,0,1,4.58,4.573v29.427H133.758a4.589,4.589,0,0,1-4.58-4.574Zm30.342.1H129.281v29.323a4.485,4.485,0,0,0,4.476,4.47H164V152.427a4.485,4.485,0,0,0-4.476-4.47Z" transform="translate(-129.178 -147.853)" fill="#00347d" fill-rule="evenodd"/>
</svg>
